<svg xmlns="http://www.w3.org/2000/svg" version="1.1" xmlns:xlink="http://www.w3.org/1999/xlink" width="1000" height="1000"><metadata><rdf:RDF xmlns:rdf="http://www.w3.org/1999/02/22-rdf-syntax-ns#" xmlns:dc="http://purl.org/dc/elements/1.1/"><rdf:Description><dc:creator>RealFaviconGenerator</dc:creator><dc:source>https://realfavicongenerator.net</dc:source></rdf:Description></rdf:RDF></metadata><g clip-path="url(#SvgjsClipPath1025)"><rect width="1000" height="1000" fill="#ffffff"></rect><g transform="matrix(2.5,0,0,2.5,0,0)"><svg xmlns="http://www.w3.org/2000/svg" version="1.1" xmlns:xlink="http://www.w3.org/1999/xlink" id="svg" width="400" height="400" viewBox="0 0 400 400"><g id="svgg"><path id="path0" d="M232.217 150.754 C 205.837 153.914,190.317 172.683,191.512 199.977 C 191.748 205.360,191.672 205.182,193.069 203.617 C 198.487 197.547,203.358 192.008,208.598 185.955 C 217.633 175.520,219.922 173.495,225.269 171.199 C 244.198 163.073,265.537 179.270,262.908 199.767 C 260.545 218.182,243.593 228.741,225.269 223.211 C 221.427 222.051,221.712 221.900,220.297 225.850 C 219.284 228.676,216.778 234.536,216.278 235.247 C 216.155 235.423,215.524 236.529,214.876 237.707 L 213.699 239.847 214.656 240.342 C 219.062 242.621,231.191 244.183,238.437 243.406 C 284.890 238.422,297.338 177.967,256.459 155.881 C 249.924 152.350,238.703 149.977,232.217 150.754 M158.373 160.274 C 130.307 164.697,112.861 193.507,122.208 219.996 C 129.486 240.624,149.836 252.887,172.146 250.091 C 193.851 247.370,209.286 231.111,211.480 208.658 C 211.856 204.808,211.912 196.594,211.563 196.386 C 211.341 196.253,205.025 202.884,201.869 206.566 C 183.473 228.019,181.097 230.098,172.887 231.920 C 148.445 237.346,129.363 211.043,142.976 190.691 C 150.349 179.668,164.220 175.708,177.282 180.897 C 178.593 181.418,179.700 181.802,179.742 181.751 C 179.783 181.700,180.285 180.223,180.857 178.469 C 182.086 174.697,184.278 169.217,185.622 166.554 C 186.748 164.323,186.825 164.437,183.254 163.047 C 175.799 160.148,166.061 159.062,158.373 160.274 " stroke="none" fill="#fafafa" fill-rule="evenodd"></path><path id="path1" d="M0.000 200.000 L 0.000 400.000 200.000 400.000 L 400.000 400.000 400.000 200.000 L 400.000 0.000 200.000 0.000 L 0.000 0.000 0.000 200.000 M243.222 151.387 C 286.613 158.690,295.102 218.796,255.521 238.462 C 243.415 244.477,224.348 245.354,214.656 240.342 L 213.699 239.847 214.876 237.707 C 215.524 236.529,216.155 235.423,216.278 235.247 C 216.778 234.536,219.284 228.676,220.297 225.850 C 221.712 221.900,221.427 222.051,225.269 223.211 C 243.593 228.741,260.545 218.182,262.908 199.767 C 265.537 179.270,244.198 163.073,225.269 171.199 C 219.922 173.495,217.633 175.520,208.598 185.955 C 203.358 192.008,198.487 197.547,193.069 203.617 C 191.672 205.182,191.748 205.360,191.512 199.977 C 190.317 172.683,205.837 153.914,232.217 150.754 C 234.106 150.528,240.198 150.878,243.222 151.387 M172.727 160.292 C 176.603 160.876,179.864 161.729,183.254 163.047 C 186.825 164.437,186.748 164.323,185.622 166.554 C 184.278 169.217,182.086 174.697,180.857 178.469 C 180.285 180.223,179.783 181.700,179.742 181.751 C 179.700 181.802,178.593 181.418,177.282 180.897 C 164.220 175.708,150.349 179.668,142.976 190.691 C 129.363 211.043,148.445 237.346,172.887 231.920 C 181.097 230.098,183.473 228.019,201.869 206.566 C 205.025 202.884,211.341 196.253,211.563 196.386 C 212.352 196.857,211.618 209.753,210.496 215.126 C 201.818 256.692,143.659 263.510,124.411 225.216 C 107.959 192.487,136.029 154.770,172.727 160.292 " stroke="none" fill="#040404" fill-rule="evenodd"></path></g></svg></g></g><defs><clipPath id="SvgjsClipPath1025"><rect width="1000" height="1000" x="0" y="0" rx="500" ry="500"></rect></clipPath></defs></svg>